<!DOCTYPE svg PUBLIC "-//W3C//DTD SVG 1.1//EN" "http://www.w3.org/Graphics/SVG/1.1/DTD/svg11.dtd">
<!-- Uploaded to: SVG Repo, www.svgrepo.com, Transformed by: SVG Repo Mixer Tools -->
<svg fill="#626892" width="800px" height="800px" viewBox="0 0 24 24" xmlns="http://www.w3.org/2000/svg">
<g id="SVGRepo_bgCarrier" stroke-width="0"/>
<g id="SVGRepo_tracerCarrier" stroke-linecap="round" stroke-linejoin="round"/>
<g id="SVGRepo_iconCarrier">
<path d="M17.868 4.504A1 1 0 0 0 17 4H3a1 1 0 0 0-.868 1.496L5.849 12l-3.717 6.504A1 1 0 0 0 3 20h14a1 1 0 0 0 .868-.504l4-7a.998.998 0 0 0 0-.992l-4-7zM16.42 18H4.724l3.145-5.504a.998.998 0 0 0 0-.992L4.724 6H16.42l3.429 6-3.429 6z"/>
</g>
</svg>